<mxfile host="app.diagrams.net" modified="2024-03-13T16:59:31.313Z" agent="Mozilla/5.0 (Macintosh; Intel Mac OS X 10_15_7) AppleWebKit/537.36 (KHTML, like Gecko) Chrome/121.0.0.0 Safari/537.36" version="23.1.5" etag="MnO_qqGJTOM2dI0bMmmR" type="github">
  <diagram name="Page-1" id="Tkxyf8e6EZ0G4R0NaDnW">
    <mxGraphModel>
      <root>
        <mxCell id="0" />
        <mxCell id="1" parent="0" />
      </root>
    </mxGraphModel>
  </diagram>
</mxfile>
